<mxfile host="app.diagrams.net" modified="2021-02-16T12:58:38.936Z" agent="5.0 (Windows NT 10.0; WOW64) AppleWebKit/537.36 (KHTML, like Gecko) Chrome/88.0.4324.41 YaBrowser/21.2.0.1099 Yowser/2.5 Safari/537.36" etag="eU2tng5uJGC2Z-_GJzqB" version="14.3.2" type="github">
  <diagram id="4euqIs4oxl-kkEUnpDI5" name="Page-1">
    <mxGraphModel dx="813" dy="451" grid="1" gridSize="10" guides="1" tooltips="1" connect="1" arrows="1" fold="1" page="1" pageScale="1" pageWidth="827" pageHeight="1169" math="0" shadow="0">
      <root>
        <mxCell id="0" />
        <mxCell id="1" parent="0" />
        <mxCell id="OHiu4nSgW4le7MMi9Xiw-3" style="edgeStyle=orthogonalEdgeStyle;rounded=0;orthogonalLoop=1;jettySize=auto;html=1;" edge="1" parent="1" source="OHiu4nSgW4le7MMi9Xiw-1" target="OHiu4nSgW4le7MMi9Xiw-4">
          <mxGeometry relative="1" as="geometry">
            <mxPoint x="360" y="90" as="targetPoint" />
          </mxGeometry>
        </mxCell>
        <mxCell id="OHiu4nSgW4le7MMi9Xiw-6" style="edgeStyle=orthogonalEdgeStyle;rounded=0;orthogonalLoop=1;jettySize=auto;html=1;exitX=1;exitY=0.75;exitDx=0;exitDy=0;" edge="1" parent="1" source="OHiu4nSgW4le7MMi9Xiw-1" target="OHiu4nSgW4le7MMi9Xiw-7">
          <mxGeometry relative="1" as="geometry">
            <mxPoint x="270" y="200" as="targetPoint" />
          </mxGeometry>
        </mxCell>
        <mxCell id="OHiu4nSgW4le7MMi9Xiw-1" value="id&lt;br&gt;name&lt;br&gt;stage&lt;br&gt;stage_vowels&lt;br&gt;team_id&lt;br&gt;is_in_the_test" style="rounded=0;whiteSpace=wrap;html=1;align=right;" vertex="1" parent="1">
          <mxGeometry x="40" y="40" width="120" height="100" as="geometry" />
        </mxCell>
        <mxCell id="OHiu4nSgW4le7MMi9Xiw-4" value="id&lt;br&gt;math&lt;br&gt;IT&lt;br&gt;Phis(etc)&lt;br&gt;" style="rounded=0;whiteSpace=wrap;html=1;align=right;" vertex="1" parent="1">
          <mxGeometry x="300" y="40" width="70" height="100" as="geometry" />
        </mxCell>
        <mxCell id="OHiu4nSgW4le7MMi9Xiw-7" value="id&lt;br&gt;theater(etc)" style="rounded=0;whiteSpace=wrap;html=1;align=right;" vertex="1" parent="1">
          <mxGeometry x="190" y="160" width="90" height="70" as="geometry" />
        </mxCell>
      </root>
    </mxGraphModel>
  </diagram>
</mxfile>
